<mxfile host="app.diagrams.net" modified="2022-10-27T06:25:56.298Z" agent="5.0 (Macintosh; Intel Mac OS X 10_15_7) AppleWebKit/537.36 (KHTML, like Gecko) Chrome/104.0.5112.105 Safari/537.36" etag="YT4agRiYHbllBiUqPXvl" version="20.5.1" type="github">
  <diagram name="Page-1" id="929967ad-93f9-6ef4-fab6-5d389245f69c">
    <mxGraphModel dx="787" dy="428" grid="1" gridSize="10" guides="1" tooltips="1" connect="1" arrows="1" fold="1" page="1" pageScale="1.5" pageWidth="1169" pageHeight="826" background="none" math="0" shadow="0">
      <root>
        <mxCell id="0" style=";html=1;" />
        <mxCell id="1" style=";html=1;" parent="0" />
        <mxCell id="1672d66443f91eb5-23" value="Spotigo" style="text;strokeColor=none;fillColor=none;html=1;fontSize=24;fontStyle=1;verticalAlign=middle;align=center;" parent="1" vertex="1">
          <mxGeometry x="120" y="40" width="1510" height="40" as="geometry" />
        </mxCell>
        <mxCell id="hg1vYkZVxigyypTbdhSZ-40" style="edgeStyle=orthogonalEdgeStyle;rounded=0;orthogonalLoop=1;jettySize=auto;html=1;entryX=0.5;entryY=0;entryDx=0;entryDy=0;strokeColor=default;" edge="1" parent="1" source="hg1vYkZVxigyypTbdhSZ-39">
          <mxGeometry relative="1" as="geometry">
            <mxPoint x="690.0000000000002" y="200" as="targetPoint" />
          </mxGeometry>
        </mxCell>
        <mxCell id="hg1vYkZVxigyypTbdhSZ-39" value="«interface»&lt;br&gt;&lt;b&gt;index.js&lt;/b&gt;" style="html=1;" vertex="1" parent="1">
          <mxGeometry x="635" y="70" width="110" height="50" as="geometry" />
        </mxCell>
        <mxCell id="hg1vYkZVxigyypTbdhSZ-73" style="edgeStyle=orthogonalEdgeStyle;rounded=0;orthogonalLoop=1;jettySize=auto;html=1;entryX=0;entryY=0.5;entryDx=0;entryDy=0;entryPerimeter=0;strokeColor=default;" edge="1" parent="1" source="hg1vYkZVxigyypTbdhSZ-44" target="hg1vYkZVxigyypTbdhSZ-72">
          <mxGeometry relative="1" as="geometry">
            <Array as="points">
              <mxPoint x="1130" y="225" />
              <mxPoint x="1130" y="225" />
            </Array>
          </mxGeometry>
        </mxCell>
        <mxCell id="hg1vYkZVxigyypTbdhSZ-44" value="Model" style="html=1;" vertex="1" parent="1">
          <mxGeometry x="970" y="200" width="110" height="50" as="geometry" />
        </mxCell>
        <mxCell id="hg1vYkZVxigyypTbdhSZ-52" style="edgeStyle=orthogonalEdgeStyle;rounded=0;orthogonalLoop=1;jettySize=auto;html=1;strokeColor=default;" edge="1" parent="1" source="hg1vYkZVxigyypTbdhSZ-45" target="hg1vYkZVxigyypTbdhSZ-48">
          <mxGeometry relative="1" as="geometry" />
        </mxCell>
        <mxCell id="hg1vYkZVxigyypTbdhSZ-64" style="edgeStyle=orthogonalEdgeStyle;rounded=0;orthogonalLoop=1;jettySize=auto;html=1;strokeColor=default;" edge="1" parent="1" source="hg1vYkZVxigyypTbdhSZ-45" target="hg1vYkZVxigyypTbdhSZ-53">
          <mxGeometry relative="1" as="geometry" />
        </mxCell>
        <mxCell id="hg1vYkZVxigyypTbdhSZ-45" value="View" style="html=1;" vertex="1" parent="1">
          <mxGeometry x="635" y="200" width="110" height="50" as="geometry" />
        </mxCell>
        <mxCell id="hg1vYkZVxigyypTbdhSZ-70" style="edgeStyle=orthogonalEdgeStyle;rounded=0;orthogonalLoop=1;jettySize=auto;html=1;entryX=0.5;entryY=0;entryDx=0;entryDy=0;strokeColor=default;" edge="1" parent="1" source="hg1vYkZVxigyypTbdhSZ-46" target="hg1vYkZVxigyypTbdhSZ-66">
          <mxGeometry relative="1" as="geometry" />
        </mxCell>
        <mxCell id="hg1vYkZVxigyypTbdhSZ-71" style="edgeStyle=orthogonalEdgeStyle;rounded=0;orthogonalLoop=1;jettySize=auto;html=1;entryX=0.5;entryY=1;entryDx=0;entryDy=0;strokeColor=default;" edge="1" parent="1" source="hg1vYkZVxigyypTbdhSZ-46" target="hg1vYkZVxigyypTbdhSZ-44">
          <mxGeometry relative="1" as="geometry" />
        </mxCell>
        <mxCell id="hg1vYkZVxigyypTbdhSZ-46" value="Controller" style="html=1;" vertex="1" parent="1">
          <mxGeometry x="800" y="370" width="110" height="50" as="geometry" />
        </mxCell>
        <mxCell id="hg1vYkZVxigyypTbdhSZ-48" value="login.js" style="swimlane;fontStyle=1;align=center;verticalAlign=top;childLayout=stackLayout;horizontal=1;startSize=26;horizontalStack=0;resizeParent=1;resizeParentMax=0;resizeLast=0;collapsible=1;marginBottom=0;" vertex="1" parent="1">
          <mxGeometry x="610" y="280" width="160" height="86" as="geometry" />
        </mxCell>
        <mxCell id="hg1vYkZVxigyypTbdhSZ-49" value="+ App()" style="text;strokeColor=none;fillColor=none;align=left;verticalAlign=top;spacingLeft=4;spacingRight=4;overflow=hidden;rotatable=0;points=[[0,0.5],[1,0.5]];portConstraint=eastwest;" vertex="1" parent="hg1vYkZVxigyypTbdhSZ-48">
          <mxGeometry y="26" width="160" height="26" as="geometry" />
        </mxCell>
        <mxCell id="hg1vYkZVxigyypTbdhSZ-50" value="" style="line;strokeWidth=1;fillColor=none;align=left;verticalAlign=middle;spacingTop=-1;spacingLeft=3;spacingRight=3;rotatable=0;labelPosition=right;points=[];portConstraint=eastwest;strokeColor=inherit;" vertex="1" parent="hg1vYkZVxigyypTbdhSZ-48">
          <mxGeometry y="52" width="160" height="8" as="geometry" />
        </mxCell>
        <mxCell id="hg1vYkZVxigyypTbdhSZ-51" value="+ getTokenFromUrl()" style="text;strokeColor=none;fillColor=none;align=left;verticalAlign=top;spacingLeft=4;spacingRight=4;overflow=hidden;rotatable=0;points=[[0,0.5],[1,0.5]];portConstraint=eastwest;" vertex="1" parent="hg1vYkZVxigyypTbdhSZ-48">
          <mxGeometry y="60" width="160" height="26" as="geometry" />
        </mxCell>
        <mxCell id="hg1vYkZVxigyypTbdhSZ-65" style="edgeStyle=orthogonalEdgeStyle;rounded=0;orthogonalLoop=1;jettySize=auto;html=1;strokeColor=default;" edge="1" parent="1" source="hg1vYkZVxigyypTbdhSZ-53" target="hg1vYkZVxigyypTbdhSZ-46">
          <mxGeometry relative="1" as="geometry">
            <Array as="points">
              <mxPoint x="490" y="400" />
            </Array>
          </mxGeometry>
        </mxCell>
        <mxCell id="hg1vYkZVxigyypTbdhSZ-53" value="home_auth.js" style="swimlane;fontStyle=1;align=center;verticalAlign=top;childLayout=stackLayout;horizontal=1;startSize=26;horizontalStack=0;resizeParent=1;resizeParentMax=0;resizeLast=0;collapsible=1;marginBottom=0;" vertex="1" parent="1">
          <mxGeometry x="410" y="280" width="160" height="60" as="geometry" />
        </mxCell>
        <mxCell id="hg1vYkZVxigyypTbdhSZ-54" value="+ HomeAuth()" style="text;strokeColor=none;fillColor=none;align=left;verticalAlign=top;spacingLeft=4;spacingRight=4;overflow=hidden;rotatable=0;points=[[0,0.5],[1,0.5]];portConstraint=eastwest;" vertex="1" parent="hg1vYkZVxigyypTbdhSZ-53">
          <mxGeometry y="26" width="160" height="26" as="geometry" />
        </mxCell>
        <mxCell id="hg1vYkZVxigyypTbdhSZ-55" value="" style="line;strokeWidth=1;fillColor=none;align=left;verticalAlign=middle;spacingTop=-1;spacingLeft=3;spacingRight=3;rotatable=0;labelPosition=right;points=[];portConstraint=eastwest;strokeColor=inherit;" vertex="1" parent="hg1vYkZVxigyypTbdhSZ-53">
          <mxGeometry y="52" width="160" height="8" as="geometry" />
        </mxCell>
        <mxCell id="hg1vYkZVxigyypTbdhSZ-66" value="spotify_auth.js" style="swimlane;fontStyle=1;align=center;verticalAlign=top;childLayout=stackLayout;horizontal=1;startSize=26;horizontalStack=0;resizeParent=1;resizeParentMax=0;resizeLast=0;collapsible=1;marginBottom=0;" vertex="1" parent="1">
          <mxGeometry x="775" y="450" width="160" height="120" as="geometry">
            <mxRectangle x="775" y="450" width="130" height="30" as="alternateBounds" />
          </mxGeometry>
        </mxCell>
        <mxCell id="hg1vYkZVxigyypTbdhSZ-67" value="+ generateRandomString()" style="text;strokeColor=none;fillColor=none;align=left;verticalAlign=top;spacingLeft=4;spacingRight=4;overflow=hidden;rotatable=0;points=[[0,0.5],[1,0.5]];portConstraint=eastwest;" vertex="1" parent="hg1vYkZVxigyypTbdhSZ-66">
          <mxGeometry y="26" width="160" height="26" as="geometry" />
        </mxCell>
        <mxCell id="hg1vYkZVxigyypTbdhSZ-68" value="" style="line;strokeWidth=1;fillColor=none;align=left;verticalAlign=middle;spacingTop=-1;spacingLeft=3;spacingRight=3;rotatable=0;labelPosition=right;points=[];portConstraint=eastwest;strokeColor=inherit;" vertex="1" parent="hg1vYkZVxigyypTbdhSZ-66">
          <mxGeometry y="52" width="160" height="8" as="geometry" />
        </mxCell>
        <mxCell id="hg1vYkZVxigyypTbdhSZ-69" value="+ /login&#xa;+ /callback&#xa;+ /refresh_token" style="text;strokeColor=none;fillColor=none;align=left;verticalAlign=top;spacingLeft=4;spacingRight=4;overflow=hidden;rotatable=0;points=[[0,0.5],[1,0.5]];portConstraint=eastwest;" vertex="1" parent="hg1vYkZVxigyypTbdhSZ-66">
          <mxGeometry y="60" width="160" height="60" as="geometry" />
        </mxCell>
        <mxCell id="hg1vYkZVxigyypTbdhSZ-74" style="edgeStyle=orthogonalEdgeStyle;rounded=0;orthogonalLoop=1;jettySize=auto;html=1;exitX=0;exitY=0;exitDx=0;exitDy=15;exitPerimeter=0;entryX=1;entryY=0.25;entryDx=0;entryDy=0;strokeColor=default;" edge="1" parent="1" source="hg1vYkZVxigyypTbdhSZ-72" target="hg1vYkZVxigyypTbdhSZ-44">
          <mxGeometry relative="1" as="geometry">
            <Array as="points">
              <mxPoint x="1140" y="213" />
              <mxPoint x="1110" y="213" />
            </Array>
          </mxGeometry>
        </mxCell>
        <mxCell id="hg1vYkZVxigyypTbdhSZ-72" value="database" style="shape=cylinder3;whiteSpace=wrap;html=1;boundedLbl=1;backgroundOutline=1;size=15;" vertex="1" parent="1">
          <mxGeometry x="1140" y="185" width="60" height="80" as="geometry" />
        </mxCell>
        <mxCell id="hg1vYkZVxigyypTbdhSZ-75" value="1" style="text;html=1;strokeColor=none;fillColor=none;align=center;verticalAlign=middle;whiteSpace=wrap;rounded=0;" vertex="1" parent="1">
          <mxGeometry x="590" y="200" width="60" height="30" as="geometry" />
        </mxCell>
        <mxCell id="hg1vYkZVxigyypTbdhSZ-76" value="1" style="text;html=1;strokeColor=none;fillColor=none;align=center;verticalAlign=middle;whiteSpace=wrap;rounded=0;" vertex="1" parent="1">
          <mxGeometry x="670" y="250" width="60" height="30" as="geometry" />
        </mxCell>
        <mxCell id="hg1vYkZVxigyypTbdhSZ-77" value="1" style="text;html=1;strokeColor=none;fillColor=none;align=center;verticalAlign=middle;whiteSpace=wrap;rounded=0;" vertex="1" parent="1">
          <mxGeometry x="670" y="120" width="60" height="30" as="geometry" />
        </mxCell>
        <mxCell id="hg1vYkZVxigyypTbdhSZ-78" value="1" style="text;html=1;strokeColor=none;fillColor=none;align=center;verticalAlign=middle;whiteSpace=wrap;rounded=0;" vertex="1" parent="1">
          <mxGeometry x="470" y="366" width="60" height="30" as="geometry" />
        </mxCell>
        <mxCell id="hg1vYkZVxigyypTbdhSZ-79" value="1" style="text;html=1;strokeColor=none;fillColor=none;align=center;verticalAlign=middle;whiteSpace=wrap;rounded=0;" vertex="1" parent="1">
          <mxGeometry x="810" y="420" width="60" height="30" as="geometry" />
        </mxCell>
        <mxCell id="hg1vYkZVxigyypTbdhSZ-80" value="1" style="text;html=1;strokeColor=none;fillColor=none;align=center;verticalAlign=middle;whiteSpace=wrap;rounded=0;" vertex="1" parent="1">
          <mxGeometry x="890" y="366" width="60" height="30" as="geometry" />
        </mxCell>
      </root>
    </mxGraphModel>
  </diagram>
</mxfile>
